# xmcd CD database file
#
# Track frame offsets:
#	150
#	21122
#	36832
#	61032
#	78300
#	94740
#	106737
#	119607
#	136135
#	160447
#	177195
#	190167
#
# Disc length: 2774 seconds
#
# Revision: 3
# Processed by: cddbd v1.5.2PL0 Copyright (c) Steve Scherf et al.
# Submitted via: jetAudio 7
#
DISCID=930ad40c
DTITLE=Six Feet Under - Graveyard Classics
DYEAR=2000
DGENRE=Metal
TTITLE0=Holocaust (Savatage)
TTITLE1=TNT (ACDC)
TTITLE2=Sweet Leaf (Black Sabbath)
TTITLE3=Piranha (Exodus)
TTITLE4=Son of a Bitch (Accept)
TTITLE5=Stepping Stone (Sex Pistols)
TTITLE6=Confused (Angelwitch)
TTITLE7=California Über Alles (Dead Kennedys)
TTITLE8=Smoke on the Water (Deep Purple)
TTITLE9=Blackout (Scorpions) (feat. John Bush)
TTITLE10=Purple Haze (Jimi Hendrix)
TTITLE11=In League With Satan (Venom)
EXTD=YEAR: 2000  ID3G:   9
EXTT0=
EXTT1=
EXTT2=
EXTT3=
EXTT4=
EXTT5=
EXTT6=
EXTT7=
EXTT8=
EXTT9=
EXTT10=
EXTT11=
PLAYORDER=
